# xmcd
#
# Track frame offsets:
#	150
#	15207
#	32312
#	52925
#	67698
#	83931
#	102312
#
# Disc length: 1636 seconds
#
# Revision: 1
# Processed by: cddbd v1.5.2PL0 Copyright (c) Steve Scherf et al.
# Submitted via: audiograbber 1.83.01
#
DISCID=3e066207
DTITLE=Hank Lewis - B&K Promotional Disc
DYEAR=2002
DGENRE=Country
TTITLE0=Maybe It's Time
TTITLE1=When I Think Of You
TTITLE2=Honey
TTITLE3=Four Horsemen
TTITLE4=Speak Not A Word
TTITLE5=Another Lover
TTITLE6=Angels With A Purpose
EXTD=Contact the artist at n9vxr@yahoo.com with the subject "BKPromo"
EXTT0=
EXTT1=
EXTT2=
EXTT3=
EXTT4=
EXTT5=
EXTT6=
PLAYORDER=
